<?xml version="1.0" encoding="UTF-8"?>
<svg width="415px" height="415px" viewBox="0 0 415 415" version="1.1" xmlns="http://www.w3.org/2000/svg" xmlns:xlink="http://www.w3.org/1999/xlink">
    <title>images / nordtronic</title>
    <g id="images-/-nordtronic" stroke="none" stroke-width="1" fill="none" fill-rule="evenodd">
        <path d="M387.173017,144 C398.97507,144 406.131633,146.330591 410.369072,151.548919 C415.681565,158.093408 416.403499,169.456022 412.636887,187.300348 C412.330849,188.752064 411.844329,191.514246 411.224407,195.00621 C409.482349,204.862179 406.571071,221.356802 402.977095,235.50514 C397.429189,257.351492 388.844452,271.900032 364.950004,271.900032 L22.4315364,271.900032 C15.7693408,271.74309 9.33471124,268.580705 5.1914376,263.456543 C1.91134597,259.39174 -1.52568784,252.086082 0.718585382,240.331112 C1.42482521,236.630415 3.7105704,225.002 6.1392497,212.698084 L6.46379451,211.054196 L6.46379451,211.054196 L6.78927664,209.406121 C9.55771431,195.390524 12.3457255,181.33529 13.0620881,177.797499 C16.4520393,161.083157 24.1657476,144 55.6954322,144 L387.173017,144 Z M387.173017,146.346286 L55.6954322,146.346286 C25.9391942,146.346286 18.7277009,161.687384 15.3691382,178.260479 C14.6668219,181.728901 11.9752635,195.300476 9.26310637,209.032917 L8.93767464,210.680946 C6.33544568,223.861172 3.78680506,236.82314 3.03348258,240.77055 C1.39343677,249.370982 2.77452798,256.708029 7.02766115,261.981286 C10.7393438,266.579692 16.5148161,269.412499 22.4629249,269.553747 L119.861244,269.553747 L119.861244,269.545899 L364.957851,269.545899 C387.400584,269.545899 395.279081,256.299979 400.701434,234.916607 C404.271868,220.854587 407.175299,204.414893 408.90951,194.590313 C409.529431,191.074808 410.015952,188.296931 410.337684,186.80598 C413.939507,169.714977 413.374515,158.980131 408.540696,153.024176 C404.789778,148.402228 398.206053,146.346286 387.173017,146.346286 Z M381.703582,151.250729 C402.467033,151.250729 412.346544,157.834453 405.276298,189.073795 C404.481366,192.606828 402.517494,204.12438 399.778092,216.673464 L399.53071,217.799835 L399.53071,217.799835 L399.286383,218.898708 L399.038257,220.000723 C398.0799,224.229837 397.039076,228.505759 395.930391,232.570321 C390.507882,252.450266 382.47814,264.40084 360.816032,264.637863 L360.155421,264.641456 L26.1196777,264.641456 C15.785035,264.641456 4.75199949,256.048872 8.6127772,237.184421 C9.273185,233.95845 11.3032367,223.928442 13.4898918,213.154228 L13.7090344,212.07455 C13.782226,211.71398 13.8555467,211.352808 13.9289515,210.991258 L14.2291726,209.51275 L14.4450216,208.450029 C16.9270757,196.231182 19.3852467,184.179876 20.0930979,180.920649 C23.4802241,165.352298 30.9589366,151.529793 59.4400231,151.2549 L60.3095324,151.250729 L381.703582,151.250729 Z M110.413324,191.608411 C107.023373,191.608411 103.923765,192.691312 101.185124,194.833573 C98.4935656,196.936598 96.3983874,199.996971 94.9545193,203.920526 C93.5498868,207.742068 92.843647,211.744093 92.843647,215.832437 C92.843647,221.113542 93.5577339,225.688406 94.9623664,229.407936 C96.4140816,233.25302 98.5877309,236.227074 101.41269,238.251628 C104.253344,240.284029 107.305869,241.312001 110.476101,241.312001 C115.608111,241.312001 119.900479,238.848008 123.227654,233.982801 C126.429274,229.305924 128.053626,223.365662 128.053626,216.334652 C128.053626,209.358572 126.444968,203.481087 123.274736,198.85914 C119.963256,194.048862 115.639499,191.608411 110.413324,191.608411 Z M360.587012,191.616258 C355.164659,191.616258 350.809514,193.907614 347.639281,198.427549 C344.586756,202.774848 343.040876,208.856357 343.040876,216.507289 C343.040876,224.071902 344.578909,230.114176 347.61574,234.477169 C350.778125,239.012798 355.086188,241.312001 360.430069,241.312001 C365.106946,241.312001 368.904947,239.773967 371.722059,236.744983 C374.445006,233.818011 376.304771,229.494254 377.238577,223.899265 L377.481838,222.439703 L365.821033,219.748145 L365.58562,221.44312 C365.099099,224.927237 364.290847,226.512353 363.694467,227.22644 C362.941144,228.144552 362.03088,228.568295 360.838119,228.568295 C359.174532,228.568295 357.926842,227.76789 356.891023,226.057221 C355.737498,224.134679 355.148965,220.642715 355.148965,215.667648 C355.148965,211.241878 355.721804,208.103035 356.843941,206.337435 C357.84837,204.760166 359.080367,204.022538 360.712565,204.022538 C361.897479,204.022538 362.792049,204.414893 363.513983,205.246687 C364.322236,206.180493 364.863686,207.663597 365.106946,209.656762 L365.326666,211.406668 L377.113023,208.526779 L376.791292,207.035828 C375.692697,201.974442 373.832932,198.113665 371.25908,195.571201 C368.59891,192.950267 365.004934,191.616258 360.587012,191.616258 Z M191.693681,175.670933 L179.836699,175.670933 L179.836221,194.982729 L179.559641,194.726515 C177.26866,192.657036 174.696215,191.608411 171.856189,191.608411 C167.304866,191.608411 163.514712,193.829143 160.595587,198.199983 C157.802017,202.374645 156.389537,208.456155 156.389537,216.28757 C156.389537,223.946348 157.841252,230.043552 160.689753,234.406545 C163.687348,238.981409 167.399031,241.304154 171.730635,241.304154 C173.904285,241.304154 176.06224,240.58222 178.149571,239.161893 C178.96567,238.612595 179.734687,237.945591 180.456621,237.16088 L180.456621,240.291877 L191.693681,240.291877 L191.693681,175.670933 Z M211.672421,175.223647 L199.784051,184.569554 L199.784051,192.612841 L195.782025,192.612841 L195.782025,205.144675 L199.784051,205.144675 L199.784051,222.996848 C199.784051,227.273522 199.878216,230.059246 200.074394,231.48742 C200.325501,233.629681 200.780633,235.308962 201.463332,236.619429 C202.193113,238.024062 203.330944,239.16974 204.86113,240.032922 C206.352081,240.88041 208.047057,241.304154 209.88328,241.304154 C212.716087,241.304154 215.297785,240.637149 217.557753,239.334529 L218.413088,238.840161 L217.400811,226.402493 L215.329174,227.422618 C213.555727,228.301494 212.771016,228.395659 212.519909,228.395659 C212.323731,228.395659 212.237413,228.340729 212.143248,228.254411 C211.970611,228.089622 211.868599,227.87775 211.813669,227.595254 C211.768726,227.378032 211.680884,226.424365 211.672991,222.168071 L211.672421,205.152522 L217.628377,205.152522 L217.628377,192.612841 L211.672421,192.612841 L211.672421,175.223647 Z M265.589908,191.608411 C262.035168,191.608411 258.778617,192.683465 255.890881,194.810032 C253.042381,196.913057 250.821649,199.965583 249.299309,203.889137 C247.808359,207.718526 247.047189,211.736246 247.047189,215.82459 C247.047189,221.121389 247.808359,225.696253 249.299309,229.431477 C250.837343,233.276561 253.136546,236.250615 256.126294,238.267322 C259.116043,240.284029 262.317664,241.304154 265.644838,241.304154 C271.035802,241.304154 275.54789,238.848008 279.063394,234.006342 C282.461193,229.321618 284.187557,223.373509 284.187557,216.326805 C284.187557,209.335031 282.476887,203.441852 279.110477,198.812058 C275.634208,194.033168 271.082884,191.608411 265.589908,191.608411 Z M308.027074,191.608411 C304.488028,191.608411 301.380573,193.044432 298.736097,195.885086 L298.736097,192.620688 L287.499037,192.620688 L287.499037,240.307571 L299.356019,240.307571 L299.356019,218.555384 C299.356019,213.721565 299.567891,210.402238 299.983788,208.683721 C300.360449,207.129993 301.019606,205.929386 301.992647,205.019121 C302.895065,204.171633 303.875954,203.763583 304.982396,203.763583 C305.767107,203.763583 306.387029,203.998997 306.936326,204.516906 C307.548401,205.089745 308.01138,205.952927 308.301723,207.059369 C308.524117,207.918271 308.798973,210.103695 308.811352,215.607809 L308.811785,240.299724 L320.668767,240.299724 L320.668767,211.045701 C320.668767,207.483113 320.503978,204.799402 320.166552,202.845472 C319.813432,200.836612 319.177817,199.000388 318.275399,197.399578 C317.325899,195.704602 315.913419,194.307817 314.09289,193.232763 C312.264513,192.157709 310.224265,191.608411 308.027074,191.608411 Z M59.8465529,175.670933 L48.421162,175.670933 L48.421162,240.299724 L59.995648,240.299724 L59.995648,205.913691 L75.5407712,240.299724 L87.2329639,240.299724 L87.2329639,175.670933 L75.6584779,175.670933 L75.6584779,210.96723 L59.8465529,175.670933 Z M149.601788,191.608411 C147.820494,191.608411 146.203989,192.212639 144.807204,193.413246 C144.430543,193.734978 144.046034,194.143028 143.661526,194.637395 L143.661526,192.612841 L132.424466,192.612841 L132.424466,240.299724 L144.281448,240.299724 L144.281448,224.974319 C144.281448,217.53526 144.516861,212.615123 144.97984,210.355155 C145.505597,207.765609 146.149059,206.659167 146.588498,206.180493 C147.137795,205.59196 147.757717,205.317311 148.542428,205.317311 C149.40561,205.317311 150.433581,205.83522 151.6028,206.855344 L153.509648,208.526779 L157.111471,194.810032 L156.32676,194.182263 C154.208041,192.47944 151.948073,191.608411 149.601788,191.608411 Z M240.196663,191.608411 C238.415369,191.608411 236.798865,192.212639 235.402079,193.413246 C235.025418,193.734978 234.64091,194.143028 234.256401,194.637395 L234.256401,192.612841 L223.019341,192.612841 L223.019341,240.299724 L234.876323,240.299724 L234.876323,224.974319 C234.876323,217.53526 235.111736,212.62297 235.574716,210.355155 C236.100472,207.765609 236.743935,206.659167 237.183373,206.180493 C237.732671,205.59196 238.352592,205.317311 239.137303,205.317311 C240.000485,205.317311 241.028456,205.83522 242.197676,206.855344 L244.104523,208.526779 L247.706346,194.810032 L246.921635,194.182263 C244.802916,192.47944 242.542948,191.608411 240.196663,191.608411 Z M338.22275,192.612841 L326.365769,192.612841 L326.365769,240.299724 L338.22275,240.299724 L338.22275,192.612841 Z M178.055405,206.384518 C179.26386,208.377684 179.875935,211.822564 179.875935,216.624995 C179.875935,220.893823 179.240319,224.10329 178.000476,226.151386 C176.886186,227.971915 175.65419,228.858638 174.218169,228.858638 L174.107351,228.858209 C173.324934,228.849844 171.357993,228.678346 169.753164,225.16265 C168.882135,223.255803 168.43485,219.999252 168.43485,215.495012 C168.43485,211.398821 169.054771,208.322754 170.286767,206.368824 C171.385363,204.618918 172.648747,203.771272 174.155392,203.771272 C175.151975,203.763583 176.635079,204.038232 178.055405,206.384518 Z M265.621297,204.367811 C267.347661,204.367811 268.791529,205.285923 270.031372,207.184923 C271.396769,209.248713 272.087314,212.348321 272.087314,216.373888 C272.087314,220.517161 271.396769,223.671699 270.031372,225.751183 C268.791529,227.642337 267.347661,228.568295 265.621297,228.568295 C263.894932,228.568295 262.443217,227.650184 261.195527,225.751183 C259.822283,223.671699 259.131737,220.54855 259.131737,216.468053 C259.131737,212.387556 259.83013,209.25656 261.195527,207.184923 C262.451064,205.285923 263.894932,204.367811 265.621297,204.367811 Z M110.436866,204.344269 C112.014135,204.344269 113.340296,205.254534 114.501668,207.122146 C115.796441,209.217324 116.447751,212.332627 116.447751,216.373888 C116.447751,220.532856 115.796441,223.695241 114.501668,225.782572 C113.348143,227.650184 112.014135,228.560448 110.436866,228.560448 C108.859597,228.560448 107.525588,227.650184 106.356369,225.774725 C105.061596,223.687394 104.402439,220.54855 104.402439,216.452359 C104.402439,212.356168 105.061596,209.217324 106.356369,207.129993 C107.525588,205.254534 108.859597,204.344269 110.436866,204.344269 Z M338.22275,175.670933 L326.365769,175.670933 L326.365769,189.717258 L338.22275,189.717258 L338.22275,175.670933 Z" id="Combined-Shape" fill="#000000" fill-rule="nonzero"></path>
    </g>
</svg>