<?xml version="1.0" encoding="UTF-8"?>
<svg width="415px" height="415px" viewBox="0 0 415 415" version="1.1" xmlns="http://www.w3.org/2000/svg" xmlns:xlink="http://www.w3.org/1999/xlink">
    <title>images / nordtronic_square</title>
    <g id="images-/-nordtronic_square" stroke="none" stroke-width="1" fill="none" fill-rule="evenodd">
        <path d="M324.026978,0 C362.610693,0 386.0072,7.56212038 399.860396,24.4941407 C417.228198,45.7291858 419.588372,82.5977054 407.274421,140.497577 C406.273912,145.207988 404.68336,154.170501 402.656689,165.500951 C398.556143,188.526462 392.474036,222.718612 385.004039,257.195868 L384.378339,260.069399 C381.653162,272.522207 378.749152,284.972777 375.694266,296.908706 C361.909824,350.781557 342.390897,390.977206 299.524471,407.168041 L298.999,407.361 L405.747016,407.361495 L405.747016,407.386956 L298.931,407.386 L297.820208,407.794662 C284.660612,412.502805 269.34149,415 251.374665,415 L73.3340256,415 C51.553724,414.490766 30.5173903,404.229707 16.9720438,387.603227 C6.24864441,374.414074 -4.98783627,350.709246 2.34922645,312.567642 C7.48003955,285.883797 38.1109937,132.171606 42.7030714,109.663476 C53.7856277,55.4300877 79.0035741,0 182.081609,0 L324.026978,0 Z M323.950811,7.61304375 L182.081609,7.61304375 C84.8013929,7.61304375 61.2253067,57.3906375 50.2453667,111.165716 C47.9493278,122.41978 39.1499834,166.455764 30.283297,211.013712 L29.2193833,216.361107 C20.7120781,259.127273 12.3799661,301.185251 9.91717577,313.993497 C4.55547609,341.899503 9.07059161,365.706178 22.9750951,382.81643 C35.1094681,397.736978 53.9908603,406.928646 73.4366419,407.386956 L298.931,407.386 L298.999,407.361 L251.324152,407.361495 C324.694779,407.361495 350.451461,364.382171 368.17842,294.99908 C379.85102,249.371741 389.343024,196.029511 395.012572,164.151482 C397.039244,152.744647 398.629796,143.731211 399.681612,138.89349 C411.456828,83.437941 409.609736,48.6063562 393.806831,29.2809375 C381.544188,14.2840052 360.020427,7.61304375 323.950811,7.61304375 Z M303.633932,23.5265967 C371.514589,23.5265967 403.813058,44.8889502 380.698745,146.251917 C377.004559,162.547396 365.5885,231.192098 350.144753,287.386036 C332.41728,351.890923 306.166145,390.667207 235.347565,391.436283 L233.187868,391.447942 L85.3914364,391.447942 C51.6050322,391.447942 15.5354161,363.567397 28.1572163,302.357507 C30.509181,290.954746 38.1748621,253.352767 46.0275576,214.970326 L47.5008779,207.770677 C55.5205917,168.590373 63.4012846,130.252304 65.6891141,119.797227 C76.7624349,69.2822627 101.212124,24.432083 194.323567,23.5401309 L197.1662,23.5265967 L303.633932,23.5265967 Z M179.650308,101.339097 L142.297988,101.339097 L142.297988,311.041532 L180.137735,311.041532 L180.137735,199.46843 L230.958439,311.041532 L269.182996,311.041532 L269.182996,101.339097 L231.343249,101.339097 L231.343249,215.865755 L179.650308,101.339097 Z" id="Combined-Shape" fill="#154577" fill-rule="nonzero"></path>
    </g>
</svg>