<?xml version="1.0" encoding="UTF-8"?>
<svg width="320px" height="320px" viewBox="0 0 320 320" version="1.1" xmlns="http://www.w3.org/2000/svg" xmlns:xlink="http://www.w3.org/1999/xlink">
    <title>images / ZG2855_5C</title>
    <g id="images-/-ZG2855_5C" stroke="none" stroke-width="1" fill="none" fill-rule="evenodd">
        <path d="M236.418023,10.0008073 L238.671776,10.0129003 L240.840119,10.0394587 L242.239556,10.0651744 L243.60302,10.0972796 L244.931306,10.1357587 L246.225208,10.1805958 L247.485521,10.2317752 L248.713039,10.2892809 L249.908558,10.3530973 L251.072871,10.4232086 L252.206774,10.499599 L253.852347,10.6259232 L253.852347,10.6259232 L254.913701,10.7179421 L255.947425,10.8161848 L256.954315,10.9206355 L258.416073,11.0889171 L258.416073,11.0889171 L259.359353,11.2088187 L260.27858,11.3348731 L261.614059,11.5354565 L261.614059,11.5354565 L262.476629,11.6768237 L262.899888,11.7497948 L262.899888,11.7497948 L263.730849,11.9003022 C264.004445,11.9514845 264.274694,12.0036791 264.541729,12.0568834 L265.333324,12.2195226 L266.486296,12.4748056 L266.486296,12.4748056 L267.417259,12.697888 L267.417259,12.697888 L268.322745,12.9303435 C268.441848,12.9619611 268.560312,12.9938278 268.678154,13.0259433 L269.377885,13.2216191 L269.722405,13.3216913 L270.401254,13.5262943 L271.067174,13.736829 L271.720961,13.9532795 C271.936956,14.0264139 272.151061,14.1005317 272.363409,14.1756301 L272.995313,14.403865 L273.617468,14.6379684 L274.230668,14.8779245 L274.835708,15.1237175 L275.433382,15.3753317 L276.024485,15.6327512 L276.609812,15.8959602 L277.190158,16.164943 L277.766317,16.4396837 L278.624443,16.8625564 L279.193611,17.151623 L280.044976,17.5959105 L280.328525,17.7468484 L280.328525,17.7468484 C289.780377,22.8017541 297.198246,30.2196227 302.253152,39.6714746 L302.701704,40.5223816 L302.993624,41.0907477 L303.279833,41.6609167 L303.560316,42.2336832 L303.835057,42.809842 L304.10404,43.3901877 L304.367249,43.9755149 L304.624668,44.5666182 L304.876282,45.1642924 L305.122075,45.7693321 L305.362032,46.382532 L305.596135,47.0046866 L305.82437,47.6365907 L305.936282,47.9564472 L306.263171,48.9328259 L306.263171,48.9328259 L306.473706,49.5987463 L306.678309,50.2775948 L306.974057,51.3218459 L306.974057,51.3218459 L307.210253,52.217576 L307.210253,52.217576 L307.437088,53.1381624 L307.525194,53.5137044 L307.525194,53.5137044 L307.780477,54.6666756 L307.780477,54.6666756 L307.943117,55.4582709 L308.022165,55.8612508 L308.022165,55.8612508 L308.213149,56.8904459 L308.213149,56.8904459 L308.394623,57.9519471 L308.464543,58.385941 L308.464543,58.385941 L308.665127,59.7214198 L308.665127,59.7214198 L308.791181,60.6406467 L308.911083,61.5839269 L309.024816,62.5520549 L309.132365,63.5458254 L309.282058,65.0862993 L309.282058,65.0862993 L309.374077,66.1476527 L309.459856,67.2374301 L309.53938,68.3564258 L309.612633,69.5054348 L309.679599,70.6852515 L309.740262,71.8966706 L309.794606,73.1404869 L309.842616,74.4174949 L309.884277,75.7284893 L309.919571,77.0742647 L309.948483,78.4556159 L309.970998,79.8733375 L309.9871,81.328224 L309.999193,83.5819766 L309.999193,236.418023 L309.9871,238.671776 L309.960541,240.840119 L309.934826,242.239556 L309.90272,243.60302 L309.864241,244.931306 L309.819404,246.225208 L309.768225,247.485521 L309.710719,248.713039 L309.646903,249.908558 L309.576791,251.072871 L309.500401,252.206774 L309.374077,253.852347 L309.374077,253.852347 L309.282058,254.913701 L309.183815,255.947425 L309.079364,256.954315 L308.911083,258.416073 L308.911083,258.416073 L308.791181,259.359353 L308.665127,260.27858 L308.464543,261.614059 L308.464543,261.614059 L308.323176,262.476629 L308.250205,262.899888 L308.250205,262.899888 L308.099698,263.730849 C308.048515,264.004445 307.996321,264.274694 307.943117,264.541729 L307.780477,265.333324 L307.525194,266.486296 L307.525194,266.486296 L307.302112,267.417259 L307.302112,267.417259 L307.069656,268.322745 C307.038039,268.441848 307.006172,268.560312 306.974057,268.678154 L306.778381,269.377885 L306.678309,269.722405 L306.473706,270.401254 L306.263171,271.067174 L306.04672,271.720961 C305.973586,271.936956 305.899468,272.151061 305.82437,272.363409 L305.596135,272.995313 L305.362032,273.617468 L305.122075,274.230668 L304.876282,274.835708 L304.624668,275.433382 L304.367249,276.024485 L304.10404,276.609812 L303.835057,277.190158 L303.560316,277.766317 L303.137444,278.624443 L302.848377,279.193611 L302.40409,280.044976 L302.253152,280.328525 L302.253152,280.328525 C297.198246,289.780377 289.780377,297.198246 280.328525,302.253152 L279.477618,302.701704 L278.909252,302.993624 L278.339083,303.279833 L277.766317,303.560316 L277.190158,303.835057 L276.609812,304.10404 L276.024485,304.367249 L275.433382,304.624668 L274.835708,304.876282 L274.230668,305.122075 L273.617468,305.362032 L272.995313,305.596135 L272.043553,305.936282 L272.043553,305.936282 L271.395535,306.155684 L271.067174,306.263171 L270.401254,306.473706 L269.722405,306.678309 L268.678154,306.974057 L268.678154,306.974057 L267.782424,307.210253 L267.782424,307.210253 L266.861838,307.437088 L266.486296,307.525194 L265.333324,307.780477 L265.333324,307.780477 L264.541729,307.943117 L264.138749,308.022165 L264.138749,308.022165 L263.109554,308.213149 L263.109554,308.213149 L262.048053,308.394623 L261.614059,308.464543 L260.27858,308.665127 L260.27858,308.665127 L259.359353,308.791181 L258.416073,308.911083 L257.447945,309.024816 L256.454175,309.132365 L254.913701,309.282058 L254.913701,309.282058 L253.852347,309.374077 L252.76257,309.459856 L251.643574,309.53938 L250.494565,309.612633 L249.314749,309.679599 L248.103329,309.740262 L246.859513,309.794606 L245.582505,309.842616 L244.271511,309.884277 L242.925735,309.919571 L241.544384,309.948483 L240.126663,309.970998 L238.671776,309.9871 L236.418023,309.999193 L83.5819766,309.999193 L81.328224,309.9871 L79.1598807,309.960541 L77.7604437,309.934826 L76.3969797,309.90272 L75.0686941,309.864241 L73.7747923,309.819404 L72.5144795,309.768225 L71.2869611,309.710719 L70.0914425,309.646903 L68.927129,309.576791 L67.793226,309.500401 L66.1476527,309.374077 L66.1476527,309.374077 L65.0862993,309.282058 L64.0525749,309.183815 L63.0456851,309.079364 L61.5839269,308.911083 L61.5839269,308.911083 L60.6406467,308.791181 L59.7214198,308.665127 L58.385941,308.464543 L58.385941,308.464543 L57.5233706,308.323176 L57.100112,308.250205 L57.100112,308.250205 L56.2691515,308.099698 C55.9955554,308.048515 55.725306,307.996321 55.4582709,307.943117 L54.6666756,307.780477 L53.893571,307.611796 L53.5137044,307.525194 L52.5827409,307.302112 L52.5827409,307.302112 L51.6772545,307.069656 C51.5581525,307.038039 51.4396885,307.006172 51.3218459,306.974057 L50.2775948,306.678309 L50.2775948,306.678309 L49.5987463,306.473706 L48.9328259,306.263171 L48.279039,306.04672 C48.0630439,305.973586 47.8489386,305.899468 47.6365907,305.82437 L47.0046866,305.596135 L46.382532,305.362032 L45.7693321,305.122075 L45.1642924,304.876282 L44.5666182,304.624668 L43.9755149,304.367249 L43.3901877,304.10404 L42.809842,303.835057 L42.2336832,303.560316 L41.3755571,303.137444 L40.8063889,302.848377 L39.9550237,302.40409 L39.6714746,302.253152 L39.6714746,302.253152 C30.2196227,297.198246 22.8017541,289.780377 17.7468484,280.328525 L17.2982958,279.477618 L17.0063759,278.909252 L16.7201666,278.339083 L16.4396837,277.766317 L16.164943,277.190158 L15.8959602,276.609812 L15.6327512,276.024485 L15.3753317,275.433382 L15.1237175,274.835708 L14.8779245,274.230668 L14.6379684,273.617468 L14.403865,272.995313 L14.0637183,272.043553 L14.0637183,272.043553 L13.736829,271.067174 L13.736829,271.067174 L13.5262943,270.401254 L13.3216913,269.722405 L13.0259433,268.678154 L13.0259433,268.678154 L12.7897472,267.782424 L12.7897472,267.782424 L12.5629118,266.861838 L12.4748056,266.486296 L12.4748056,266.486296 L12.2195226,265.333324 L12.2195226,265.333324 L12.0568834,264.541729 L11.9778346,264.138749 L11.9778346,264.138749 L11.7868514,263.109554 L11.7868514,263.109554 L11.6053769,262.048053 L11.5354565,261.614059 L11.3348731,260.27858 L11.3348731,260.27858 L11.2088187,259.359353 L11.0889171,258.416073 L10.9751839,257.447945 L10.8676351,256.454175 L10.7179421,254.913701 L10.7179421,254.913701 L10.6259232,253.852347 L10.5401438,252.76257 L10.4606199,251.643574 L10.3873671,250.494565 L10.3204013,249.314749 L10.2597382,248.103329 L10.2053937,246.859513 L10.1573835,245.582505 L10.1157234,244.271511 L10.0804293,242.925735 L10.0515169,241.544384 L10.0290019,240.126663 L10.0129003,238.671776 L10.0008073,236.418023 L10.0008073,83.5819766 L10.0129003,81.328224 L10.0394587,79.1598807 L10.0651744,77.7604437 L10.0972796,76.3969797 L10.1357587,75.0686941 L10.1805958,73.7747923 L10.2317752,72.5144795 L10.2892809,71.2869611 L10.3530973,70.0914425 L10.4232086,68.927129 L10.499599,67.793226 L10.6259232,66.1476527 L10.6259232,66.1476527 L10.7179421,65.0862993 L10.8161848,64.0525749 L10.9206355,63.0456851 L11.0889171,61.5839269 L11.0889171,61.5839269 L11.2088187,60.6406467 L11.3348731,59.7214198 L11.5354565,58.385941 L11.5354565,58.385941 L11.6768237,57.5233706 L11.7497948,57.100112 L11.7497948,57.100112 L11.9003022,56.2691515 C11.9514845,55.9955554 12.0036791,55.725306 12.0568834,55.4582709 L12.2195226,54.6666756 L12.388204,53.893571 L12.4748056,53.5137044 L12.697888,52.5827409 L12.697888,52.5827409 L12.9303435,51.6772545 C12.9619611,51.5581525 12.9938278,51.4396885 13.0259433,51.3218459 L13.3216913,50.2775948 L13.3216913,50.2775948 L13.5262943,49.5987463 L13.736829,48.9328259 L13.9532795,48.279039 C14.0264139,48.0630439 14.1005317,47.8489386 14.1756301,47.6365907 L14.403865,47.0046866 L14.6379684,46.382532 L14.8779245,45.7693321 L15.1237175,45.1642924 L15.3753317,44.5666182 L15.6327512,43.9755149 L15.8959602,43.3901877 L16.164943,42.809842 L16.4396837,42.2336832 L16.8625564,41.3755571 L17.151623,40.8063889 L17.5959105,39.9550237 L17.7468484,39.6714746 L17.7468484,39.6714746 C22.8017541,30.2196227 30.2196227,22.8017541 39.6714746,17.7468484 L40.5223816,17.2982958 L41.0907477,17.0063759 L41.6609167,16.7201666 L42.2336832,16.4396837 L42.809842,16.164943 L43.3901877,15.8959602 L43.9755149,15.6327512 L44.5666182,15.3753317 L45.1642924,15.1237175 L45.7693321,14.8779245 L46.382532,14.6379684 L47.0046866,14.403865 L47.6365907,14.1756301 L47.9564472,14.0637183 L48.9328259,13.736829 L48.9328259,13.736829 L49.5987463,13.5262943 L50.2775948,13.3216913 L51.3218459,13.0259433 L51.3218459,13.0259433 L52.217576,12.7897472 L52.217576,12.7897472 L53.1381624,12.5629118 L53.5137044,12.4748056 L53.5137044,12.4748056 L54.6666756,12.2195226 L54.6666756,12.2195226 L55.4582709,12.0568834 L55.8612508,11.9778346 L55.8612508,11.9778346 L56.8904459,11.7868514 L56.8904459,11.7868514 L57.9519471,11.6053769 L58.385941,11.5354565 L58.385941,11.5354565 L59.7214198,11.3348731 L59.7214198,11.3348731 L60.6406467,11.2088187 L61.5839269,11.0889171 L62.5520549,10.9751839 L63.5458254,10.8676351 L65.0862993,10.7179421 L65.0862993,10.7179421 L66.1476527,10.6259232 L67.2374301,10.5401438 L68.3564258,10.4606199 L69.5054348,10.3873671 L70.6852515,10.3204013 L71.8966706,10.2597382 L73.1404869,10.2053937 L74.4174949,10.1573835 L75.7284893,10.1157234 L77.0742647,10.0804293 L78.4556159,10.0515169 L79.8733375,10.0290019 L81.328224,10.0129003 L83.5819766,10.0008073 L236.418023,10.0008073 Z M237.037675,20 L84.3526708,20 L82.2804076,20.0052451 L80.9425939,20.0146577 L79.6388235,20.0289016 L77.7452871,20.0595109 L75.9239463,20.1014659 L74.7485236,20.13588 L73.6032314,20.1755478 L72.4872874,20.2205538 L71.3999089,20.2709827 L70.3403135,20.3269188 L69.3077187,20.3884467 L68.3013419,20.4556509 L67.3204006,20.5286158 L66.3641124,20.607426 L65.4316946,20.692166 L64.5223647,20.7829202 L63.6353403,20.8797732 L62.7698389,20.9828095 L61.9250778,21.0921135 L61.1002746,21.2077697 L60.2946469,21.3298628 L59.5074119,21.458477 L58.7377873,21.5936971 L57.9849906,21.7356073 L57.2482391,21.8842924 L56.5267504,22.0398366 L55.819742,22.2023247 L55.1264314,22.3718409 L54.4460359,22.5484699 L53.4479471,22.8269347 L53.4479471,22.8269347 L52.7964163,23.0217152 L52.1550618,23.2239042 L51.8379562,23.3278033 L51.8379562,23.3278033 L51.0548249,23.5958158 L51.0548249,23.5958158 L50.2842319,23.8757672 L49.675758,24.1084351 L49.0735479,24.348934 L48.4768192,24.5973484 L47.8847892,24.8537628 L47.2966755,25.1182617 L46.7116956,25.3909295 L46.1290669,25.6718508 L45.2578207,26.1088928 L44.3874632,26.5649804 L44.3874632,26.5649804 C36.6782961,30.6878881 30.6878881,36.6782961 26.5649804,44.3874632 L26.1088928,45.2578207 L26.1088928,45.2578207 L25.8154328,45.8383898 L25.3909295,46.7116956 L25.3909295,46.7116956 L25.1182617,47.2966755 L24.8537628,47.8847892 L24.5973484,48.4768192 L24.348934,49.0735479 L24.1084351,49.675758 L23.8757672,50.2842319 L23.6508457,50.8997522 L23.3278033,51.8379562 L23.3278033,51.8379562 L23.1218784,52.4745159 L22.8269347,53.4479471 L22.8269347,53.4479471 L22.6394781,54.1104369 L22.3718409,55.1264314 L22.3718409,55.1264314 L22.2023247,55.819742 L22.0398366,56.5267504 L21.8842924,57.2482391 L21.7356073,57.9849906 L21.5936971,58.7377873 L21.458477,59.5074119 L21.3298628,60.2946469 L21.2077697,61.1002746 L21.0921135,61.9250778 L20.9828095,62.7698389 L20.8797732,63.6353403 L20.7829202,64.5223647 L20.692166,65.4316946 L20.607426,66.3641124 L20.5286158,67.3204006 L20.4556509,68.3013419 L20.3884467,69.3077187 L20.3269188,70.3403135 L20.2709827,71.3999089 L20.2205538,72.4872874 L20.1755478,73.6032314 L20.13588,74.7485236 L20.1014659,75.9239463 L20.0595109,77.7452871 L20.0378616,78.99946 L20.0146577,80.9425939 L20,82.9623251 L20,236.346953 L20.0095068,238.414611 L20.0294483,240.403127 L20.0606985,242.315229 L20.08796,243.548859 L20.1387124,245.339667 L20.201559,247.061337 L20.2767944,248.716596 L20.3339794,249.784555 L20.3968888,250.825018 L20.4656097,251.838794 L20.5402295,252.826692 L20.6208355,253.78952 L20.7075149,254.728086 L20.8003551,255.643199 L20.8994433,256.535666 L21.0048668,257.406296 L21.1167129,258.255898 L21.2656852,259.28956 L21.2656852,259.28956 L21.4249997,260.293207 L21.5600122,261.075574 L21.70184,261.84055 L21.8888419,262.773545 L21.8888419,262.773545 L22.0867997,263.682207 L22.2531687,264.39268 L22.4267458,265.089398 L22.6076183,265.773171 L22.7958736,266.444807 L22.9915989,267.105114 L23.1948814,267.7549 L23.4058085,268.394974 L23.6244674,269.026144 L23.8509455,269.649219 L24.0853299,270.265006 L24.3277081,270.874315 L24.4519221,271.176792 L24.4519221,271.176792 L24.7064544,271.777898 L24.8367946,272.076728 L25.1036776,272.671449 L25.3789033,273.262925 L25.6625592,273.851963 L25.9547325,274.439372 L26.2555105,275.025961 L26.5649804,275.612537 C30.6878881,283.321704 36.6782961,289.312112 44.3874632,293.43502 L45.2578207,293.891107 L45.2578207,293.891107 L45.8383898,294.184567 L46.7116956,294.609071 L46.7116956,294.609071 L47.2966755,294.881738 L47.8847892,295.146237 L48.4768192,295.402652 L49.0735479,295.651066 L49.675758,295.891565 L50.2842319,296.124233 L50.8997522,296.349154 L51.8379562,296.672197 L51.8379562,296.672197 L52.4745159,296.878122 L53.4479471,297.173065 L53.4479471,297.173065 L54.1104369,297.360522 L54.7846682,297.540739 L55.1264314,297.628159 L55.819742,297.797675 L56.5267504,297.960163 L57.2482391,298.115708 L57.9849906,298.264393 L58.7377873,298.406303 L59.5074119,298.541523 L60.2946469,298.670137 L61.1002746,298.79223 L61.9250778,298.907887 L62.7698389,299.017191 L63.6353403,299.120227 L64.5223647,299.21708 L65.4316946,299.307834 L66.3641124,299.392574 L67.3204006,299.471384 L68.3013419,299.544349 L69.3077187,299.611553 L70.3403135,299.673081 L71.3999089,299.729017 L72.4872874,299.779446 L73.6032314,299.824452 L74.7485236,299.86412 L75.9239463,299.898534 L77.7452871,299.940489 L78.99946,299.962138 L80.9425939,299.985342 L82.9623251,300 L236.346953,300 L238.392804,299.990647 L240.361176,299.971098 L242.254713,299.940489 L244.076054,299.898534 L245.251476,299.86412 L246.396769,299.824452 L247.512713,299.779446 L248.600091,299.729017 L249.659686,299.673081 L250.692281,299.611553 L251.698658,299.544349 L252.679599,299.471384 L253.635888,299.392574 L254.568305,299.307834 L255.477635,299.21708 L256.36466,299.120227 L257.230161,299.017191 L258.074922,298.907887 L258.899725,298.79223 L259.705353,298.670137 L260.492588,298.541523 L261.262213,298.406303 L262.015009,298.264393 L262.751761,298.115708 L263.47325,297.960163 L264.180258,297.797675 L264.873569,297.628159 L265.553964,297.45153 L266.222227,297.267704 L266.552053,297.173065 L267.203584,296.978285 L267.844938,296.776096 L268.162044,296.672197 L268.162044,296.672197 L268.945175,296.404184 L268.945175,296.404184 L269.715768,296.124233 L270.324242,295.891565 L270.926452,295.651066 L271.523181,295.402652 L272.115211,295.146237 L272.703324,294.881738 L273.288304,294.609071 L273.870933,294.328149 L274.742179,293.891107 L275.322353,293.589183 L275.612537,293.43502 C283.321704,289.312112 289.312112,283.321704 293.43502,275.612537 L293.741208,275.032267 L293.891107,274.742179 L294.184567,274.16161 L294.469647,273.579864 L294.609071,273.288304 L294.881738,272.703324 L295.146237,272.115211 L295.402652,271.523181 L295.651066,270.926452 L295.891565,270.324242 L296.124233,269.715768 L296.349154,269.100248 L296.672197,268.162044 L296.672197,268.162044 L296.878122,267.525484 L297.173065,266.552053 L297.173065,266.552053 L297.360522,265.889563 L297.628159,264.873569 L297.628159,264.873569 L297.797675,264.180258 L297.960163,263.47325 L298.115708,262.751761 L298.264393,262.015009 L298.406303,261.262213 L298.541523,260.492588 L298.670137,259.705353 L298.79223,258.899725 L298.907887,258.074922 L299.017191,257.230161 L299.120227,256.36466 L299.21708,255.477635 L299.307834,254.568305 L299.392574,253.635888 L299.471384,252.679599 L299.544349,251.698658 L299.611553,250.692281 L299.673081,249.659686 L299.729017,248.600091 L299.779446,247.512713 L299.824452,246.396769 L299.86412,245.251476 L299.898534,244.076054 L299.940489,242.254713 L299.962138,241.00054 L299.985342,239.057406 L300,237.037675 L300,83.6530469 L299.990647,81.6071964 L299.971098,79.6388235 L299.940489,77.7452871 L299.898534,75.9239463 L299.86412,74.7485236 L299.824452,73.6032314 L299.779446,72.4872874 L299.729017,71.3999089 L299.673081,70.3403135 L299.611553,69.3077187 L299.544349,68.3013419 L299.471384,67.3204006 L299.392574,66.3641124 L299.307834,65.4316946 L299.21708,64.5223647 L299.120227,63.6353403 L299.017191,62.7698389 L298.907887,61.9250778 L298.79223,61.1002746 L298.670137,60.2946469 L298.541523,59.5074119 L298.406303,58.7377873 L298.264393,57.9849906 L298.115708,57.2482391 L297.960163,56.5267504 L297.797675,55.819742 L297.628159,55.1264314 L297.45153,54.4460359 L297.173065,53.4479471 L297.173065,53.4479471 L296.978285,52.7964163 L296.776096,52.1550618 L296.672197,51.8379562 L296.672197,51.8379562 L296.404184,51.0548249 L296.404184,51.0548249 L296.124233,50.2842319 L295.891565,49.675758 L295.651066,49.0735479 L295.402652,48.4768192 L295.146237,47.8847892 L294.881738,47.2966755 L294.609071,46.7116956 L294.328149,46.1290669 L293.891107,45.2578207 L293.589183,44.6776467 L293.43502,44.3874632 C289.312112,36.6782961 283.321704,30.6878881 275.612537,26.5649804 L274.742179,26.1088928 L274.742179,26.1088928 L274.16161,25.8154328 L273.288304,25.3909295 L273.288304,25.3909295 L272.703324,25.1182617 L272.115211,24.8537628 L271.523181,24.5973484 L270.926452,24.348934 L270.324242,24.1084351 L269.715768,23.8757672 L269.100248,23.6508457 L268.162044,23.3278033 L268.162044,23.3278033 L267.525484,23.1218784 L266.552053,22.8269347 L266.552053,22.8269347 L265.889563,22.6394781 L264.873569,22.3718409 L264.873569,22.3718409 L264.180258,22.2023247 L263.47325,22.0398366 L262.751761,21.8842924 L262.015009,21.7356073 L261.262213,21.5936971 L260.492588,21.458477 L259.705353,21.3298628 L258.899725,21.2077697 L258.074922,21.0921135 L257.230161,20.9828095 L256.36466,20.8797732 L255.477635,20.7829202 L254.568305,20.692166 L253.635888,20.607426 L252.679599,20.5286158 L251.698658,20.4556509 L250.692281,20.3884467 L249.659686,20.3269188 L248.600091,20.2709827 L247.512713,20.2205538 L246.396769,20.1755478 L245.251476,20.13588 L244.076054,20.1014659 L242.254713,20.0595109 L241.00054,20.0378616 L239.057406,20.0146577 L237.037675,20 Z M274.551299,45.4487014 C289.242822,60.1402253 289.389738,83.8686104 274.992044,98.7408715 L274.551299,99.1888168 L219.397706,154.34241 C216.340049,157.400192 216.274965,162.317314 219.202447,165.454224 L219.397612,165.656244 L274.551299,220.811183 C289.391222,235.651106 289.391222,259.711375 274.551299,274.551299 C259.859775,289.242822 236.13139,289.389738 221.259129,274.992044 L220.811183,274.551299 L165.656854,219.39697 C162.599132,216.339248 157.682007,216.27419 154.545161,219.201796 L154.343146,219.39697 L99.1888168,274.551299 C84.3488937,289.391222 60.2886245,289.391222 45.4487014,274.551299 C30.7571776,259.859775 30.6102624,236.13139 45.0079557,221.259129 L45.4487014,220.811183 L100.60303,165.656854 C103.660752,162.599132 103.72581,157.682007 100.798204,154.545161 L100.60303,154.343146 L45.4487014,99.1888168 C30.6087784,84.3488937 30.6087784,60.2886245 45.4487014,45.4487014 C60.1402253,30.7571776 83.8686104,30.6102624 98.7408715,45.0079557 L99.1888168,45.4487014 L154.343146,100.60303 C157.400868,103.660752 162.317993,103.72581 165.454839,100.798204 L165.656854,100.60303 L220.811183,45.4487014 C235.651106,30.6087784 259.711375,30.6087784 274.551299,45.4487014 Z M224.040404,47.8827771 L223.63961,48.2771286 L168.485281,103.431458 C163.877095,108.039644 156.453467,108.116447 151.751433,103.661867 L151.514719,103.431458 L96.3603897,48.2771286 C83.0825638,34.9993027 61.5549545,34.9993027 48.2771286,48.2771286 C35.1320809,61.4221762 35.0006304,82.6528366 47.8827771,95.9595965 L48.2771286,96.3603897 L103.431458,151.514719 C108.039644,156.122905 108.116447,163.546533 103.661867,168.248567 L103.431458,168.485281 L48.2771286,223.63961 C34.9993027,236.917436 34.9993027,258.445046 48.2771286,271.722871 C61.4221762,284.867919 82.6528366,284.99937 95.9595965,272.117223 L96.3603897,271.722871 L151.514719,216.568542 C156.122905,211.960356 163.546533,211.883553 168.248567,216.338133 L168.485281,216.568542 L223.63961,271.722871 C236.917436,285.000697 258.445046,285.000697 271.722871,271.722871 C284.867919,258.577824 284.99937,237.347163 272.117207,224.040388 L271.722855,223.639594 L216.569124,168.484609 C211.961144,163.876335 211.884386,156.452821 216.338847,151.750729 L216.56925,151.514012 L271.722871,96.3603897 C285.000697,83.0825638 285.000697,61.5549545 271.722871,48.2771286 C258.709274,35.2635314 237.770968,35.0045608 224.441967,47.5002168 L224.040404,47.8827771 Z M72,217 C89.1208272,217 103,230.879173 103,248 C103,265.120827 89.1208272,279 72,279 C54.8791728,279 41,265.120827 41,248 C41,230.879173 54.8791728,217 72,217 Z M248,217 C265.120827,217 279,230.879173 279,248 C279,265.120827 265.120827,279 248,279 C230.879173,279 217,265.120827 217,248 C217,230.879173 230.879173,217 248,217 Z M160,124 C179.882251,124 196,140.117749 196,160 C196,179.882251 179.882251,196 160,196 C140.117749,196 124,179.882251 124,160 C124,140.117749 140.117749,124 160,124 Z M72,41 C89.1208272,41 103,54.8791728 103,72 C103,89.1208272 89.1208272,103 72,103 C54.8791728,103 41,89.1208272 41,72 C41,54.8791728 54.8791728,41 72,41 Z M248,41 C265.120827,41 279,54.8791728 279,72 C279,89.1208272 265.120827,103 248,103 C230.879173,103 217,89.1208272 217,72 C217,54.8791728 230.879173,41 248,41 Z" id="Shape" fill="#000000" fill-rule="nonzero"></path>
    </g>
</svg>